<?xml version="1.0" standalone="no"?>
<!DOCTYPE svg PUBLIC "-//W3C//DTD SVG 20010904//EN"
 "http://www.w3.org/TR/2001/REC-SVG-20010904/DTD/svg10.dtd">
<svg version="1.0" xmlns="http://www.w3.org/2000/svg"
 width="287.000000pt" height="285.000000pt" viewBox="0 0 287.000000 285.000000"
 preserveAspectRatio="xMidYMid meet">
<metadata>
Created by potrace 1.16, written by Peter Selinger 2001-2019
</metadata>
<g transform="translate(0.000000,285.000000) scale(0.100000,-0.100000)"
fill="#000000" stroke="none">
<path d="M1890 2636 l0 -56 -234 0 -234 0 -6 -27 c-3 -16 -10 -65 -17 -110
l-11 -81 -70 -18 c-41 -10 -73 -13 -77 -7 -34 49 -93 132 -105 146 -14 18 -19
16 -110 -37 -53 -31 -96 -62 -96 -69 0 -7 16 -50 35 -96 19 -45 35 -88 35 -94
0 -16 -82 -97 -98 -97 -8 0 -55 18 -104 41 -50 22 -91 39 -93 37 -6 -7 -54
-88 -83 -140 l-32 -56 85 -68 c70 -55 85 -72 80 -89 -3 -11 -11 -41 -17 -67
-12 -52 1 -47 -165 -64 l-63 -6 0 -114 c0 -83 3 -116 12 -118 7 -2 55 -10 107
-17 l94 -14 19 -69 c10 -38 17 -70 16 -71 -2 -1 -40 -28 -85 -59 -46 -32 -83
-63 -83 -69 0 -24 108 -192 122 -189 7 2 53 19 101 39 l88 36 51 -51 51 -51
-43 -96 c-26 -57 -40 -99 -34 -105 23 -22 188 -110 194 -103 4 4 35 43 69 86
35 43 68 76 75 73 6 -2 37 -10 68 -17 l57 -13 6 -75 c3 -42 8 -91 11 -109 l5
-33 57 3 57 3 3 188 2 187 -33 0 c-200 0 -431 148 -530 338 -59 114 -71 164
-71 297 -1 165 31 262 127 391 80 106 231 204 363 235 51 12 442 23 482 14 19
-5 22 -12 22 -56 0 -28 4 -49 9 -47 16 6 371 290 370 297 0 5 -304 249 -356
286 l-23 16 0 -55z"/>
<path d="M1405 2130 c-61 -12 -142 -47 -199 -85 -247 -164 -331 -480 -200
-751 61 -126 201 -247 337 -292 306 -100 634 62 741 367 28 80 34 258 11 337
-49 170 -156 300 -306 372 -46 23 -104 46 -129 51 -52 12 -197 12 -255 1z
m276 -80 c217 -67 360 -263 361 -495 1 -330 -309 -576 -631 -500 -189 45 -336
193 -386 390 -19 74 -19 130 0 220 22 104 59 171 139 251 110 110 211 152 367
153 60 1 107 -5 150 -19z"/>
<path d="M1220 1760 l0 -170 139 0 c139 0 140 0 160 26 19 24 21 40 21 149 0
167 2 165 -183 165 l-137 0 0 -170z m190 0 l0 -130 -30 0 -30 0 0 130 0 130
30 0 30 0 0 -130z"/>
<path d="M1600 1910 c-18 -18 -20 -33 -20 -150 0 -172 -2 -170 154 -170 112 0
115 1 135 26 16 21 21 41 21 90 l0 64 -79 0 c-63 0 -80 -3 -85 -16 -4 -10 0
-18 13 -21 23 -6 32 -35 24 -74 -4 -22 -11 -29 -29 -29 -30 0 -34 17 -31 150
l2 105 30 0 c19 0 30 -5 31 -15 1 -8 2 -21 3 -27 1 -9 20 -13 61 -13 59 0 60
0 60 28 0 16 -9 38 -20 50 -19 20 -30 22 -135 22 -102 0 -117 -2 -135 -20z"/>
<path d="M1290 1530 l0 -30 130 0 129 0 3 -152 3 -153 51 -3 c49 -3 52 -2 59
25 4 15 6 78 5 138 -3 159 -8 145 55 145 54 0 55 0 55 30 l0 30 -245 0 -245 0
0 -30z"/>
<path d="M1257 1464 c-4 -4 -7 -67 -7 -141 l0 -133 140 0 140 0 0 25 c0 23 -3
24 -72 27 -71 3 -73 4 -76 31 -3 24 0 27 27 27 26 0 31 4 31 25 0 21 -5 25
-30 25 -27 0 -30 3 -30 30 l0 30 76 0 75 0 -3 28 -3 27 -131 3 c-71 1 -133 -1
-137 -4z"/>
<path d="M1713 1464 c-10 -4 -13 -42 -13 -139 l0 -133 48 3 c26 2 50 3 55 4 4
1 7 61 7 134 l0 133 -42 2 c-24 0 -49 -2 -55 -4z"/>
<path d="M270 341 c-55 -29 -74 -62 -78 -139 -2 -54 1 -73 18 -100 54 -87 204
-79 239 12 15 40 15 43 -14 48 -19 3 -21 -1 -24 -41 -3 -46 -66 -68 -99 -34
-24 24 -29 156 -8 207 14 34 19 37 48 34 27 -2 35 -9 43 -35 10 -35 32 -44 42
-17 3 8 0 26 -7 39 -25 46 -99 59 -160 26z"/>
<path d="M500 200 l0 -162 109 4 c100 3 112 5 135 27 34 32 34 74 1 106 -13
14 -30 25 -37 25 -7 1 0 11 16 25 36 29 40 76 8 108 -19 19 -36 22 -127 25
l-105 4 0 -162z"/>
<path d="M780 345 c0 -11 11 -15 40 -15 l40 0 0 -145 0 -145 50 0 50 0 0 145
0 145 40 0 c29 0 40 4 40 15 0 13 -21 15 -130 15 -109 0 -130 -2 -130 -15z"/>
<path d="M1070 199 l0 -160 48 3 47 3 3 158 3 157 -51 0 -50 0 0 -161z"/>
<path d="M1275 345 c-39 -20 -55 -42 -55 -76 0 -38 26 -65 95 -102 33 -18 61
-40 63 -50 5 -27 -17 -47 -50 -47 -46 0 -68 17 -68 50 0 23 -4 30 -20 30 -28
0 -27 -52 1 -79 43 -40 154 -36 191 7 45 51 19 118 -59 152 -88 38 -107 57
-84 84 27 32 111 13 111 -24 0 -13 7 -20 20 -20 11 0 20 7 20 16 0 61 -95 94
-165 59z"/>
<path d="M1713 349 c-52 -15 -81 -77 -51 -107 20 -20 38 -14 38 12 0 50 17 76
50 76 23 0 33 -6 41 -24 18 -39 3 -70 -71 -148 -44 -46 -70 -81 -70 -95 0 -23
2 -23 120 -23 l120 0 0 40 0 40 -67 0 -68 0 68 63 c76 71 85 101 42 141 -37
34 -90 43 -152 25z"/>
<path d="M2020 354 c-8 -4 -27 -18 -42 -32 -33 -30 -36 -70 -9 -103 19 -23 19
-24 -5 -46 -13 -12 -24 -32 -24 -43 0 -31 51 -77 93 -85 128 -24 217 84 136
163 -25 25 -28 31 -16 39 29 15 30 56 4 81 -24 23 -106 38 -137 26z"/>
<path d="M2287 353 c-10 -17 -30 -153 -24 -160 4 -3 24 -1 45 6 56 19 75 12
86 -30 13 -53 -9 -93 -53 -97 -37 -4 -51 9 -51 46 0 15 -6 22 -20 22 -15 0
-20 -7 -20 -28 0 -77 139 -98 209 -33 40 37 44 99 9 131 -33 30 -90 45 -126
32 -36 -12 -41 -9 -34 23 4 24 8 25 77 25 76 0 85 5 85 51 0 17 -8 19 -89 19
-50 0 -92 -3 -94 -7z"/>
</g>
</svg>
